<?xml version="1.0" encoding="utf-8"?>
<!-- Generator: Adobe Illustrator 24.0.0, SVG Export Plug-In . SVG Version: 6.00 Build 0)  -->
<svg version="1.1" id="Capa_1" xmlns="http://www.w3.org/2000/svg" xmlns:xlink="http://www.w3.org/1999/xlink" x="0px" y="0px"
	 viewBox="0 0 470 160" style="enable-background:new 0 0 470 160;" xml:space="preserve">
<style type="text/css">
	.st0{fill:url(#SVGID_1_);}
	.st1{fill:url(#SVGID_2_);}
	.st2{fill:url(#SVGID_3_);}
	.st3{fill:#FFFFFF;}
</style>
<g>
	<g>
		
			<linearGradient id="SVGID_1_" gradientUnits="userSpaceOnUse" x1="364.9576" y1="43.35" x2="440.1576" y2="43.35" gradientTransform="matrix(1 0 0 -1 0 162)">
			<stop  offset="0" style="stop-color:#86C6A0"/>
			<stop  offset="1" style="stop-color:#007938"/>
		</linearGradient>
		<path class="st0" d="M429.4,101.1c3.3,5,5.2,11.1,5.2,17.6c0,17.7-14.4,32.1-32.1,32.1s-32.1-14.4-32.1-32.1s14.4-32.1,32.1-32.1
			c3.7,0,7.2,0.6,10.5,1.8c0.8-1.7,1.6-3.4,2.4-5c-4-1.5-8.4-2.3-13-2.3c-20.7,0-37.6,16.9-37.6,37.6s16.9,37.6,37.6,37.6
			s37.6-16.9,37.6-37.6c0-8.8-3-16.9-8.1-23.3C431.2,97.2,430.3,99.1,429.4,101.1z"/>
		
			<linearGradient id="SVGID_2_" gradientUnits="userSpaceOnUse" x1="432.75" y1="111.55" x2="432.75" y2="18.2544" gradientTransform="matrix(1 0 0 -1 0 162)">
			<stop  offset="0" style="stop-color:#86C6A0"/>
			<stop  offset="1" style="stop-color:#007938"/>
		</linearGradient>
		<path class="st1" d="M400.7,126.7c0,0,24.9-52.2,27.5-56.4c2.8-4.7,10.9-19.8,24.7-19.8c5.6,0,11.2,1.9,11.9,2.3
			c-6.9,3.3-12.9,12.8-17.5,21.9s-27.1,56.7-27.1,56.7s-2.9,5.3-4.4,7s-6.2,5.3-6.2,5.3l-7.1-5.2L400.7,126.7z"/>
		
			<linearGradient id="SVGID_3_" gradientUnits="userSpaceOnUse" x1="393.55" y1="16.35" x2="393.55" y2="55.3545" gradientTransform="matrix(1 0 0 -1 0 162)">
			<stop  offset="0" style="stop-color:#86C6A0"/>
			<stop  offset="1" style="stop-color:#007938"/>
		</linearGradient>
		<path class="st2" d="M401.4,145.7c-6.7,0-12.3-3.6-17.5-15c-4.7-10.3-8.6-19-12.6-21.2c5.3-3,11.3-2.8,11.3-2.8s11-0.6,15.9,12
			c11.1,28.7,16.7,20.4,17.3,19.8C412.9,141.7,409.3,145.7,401.4,145.7z"/>
	</g>
	<g>
		<g>
			<path class="st3" d="M21.5,57.6v13.3H5.2V5.2h16.3V35L47.7,5.2H67L42,34l27.1,36.9H49.2L30.9,46.7L21.5,57.6z"/>
			<path class="st3" d="M140.4,38.1c0,19.1-15,34.2-34.8,34.2S70.8,57.2,70.8,38.1s15-34.2,34.8-34.2
				C125.4,3.9,140.4,18.9,140.4,38.1z M123.9,38.1c0-10.3-7.6-19-18.2-19s-18.2,8.7-18.2,19s7.6,19,18.2,19
				C116.2,57.1,123.9,48.4,123.9,38.1z"/>
			<path class="st3" d="M208.2,25.6h-16.4c-0.9-4.9-4-8.3-10.6-8.3c-5.6,0-9.4,2.3-9.4,6.6c0,3.6,2.6,5.1,7.5,6.2l9.2,2.1
				c12,2.6,19.8,7.4,19.8,18.7c0,13.1-10.8,21.3-27.2,21.3c-14.8,0-28.1-7-29.6-23.2h16.3c1.1,5.8,6.1,9.3,13.8,9.3
				c6.1,0,9.3-2.2,9.3-5.8c0-2.2-1.4-4.5-7-5.6l-10.8-2.4c-12.9-2.8-19-8.9-19-19.3c0-13.1,10.6-21.4,26.1-21.4
				C190.8,3.8,206.6,7.9,208.2,25.6z"/>
			<path class="st3" d="M282.4,70.9h-16.2V46.3h-26.7v24.6h-16.3V5.2h16.3v26.4h26.7V5.2h16.2V70.9z"/>
			<path class="st3" d="M315.2,31.4h29.2v13.9h-29.2v11.4h33.3v14.2h-49.6V5.2h49.6v14.2h-33.3V31.4z"/>
			<path class="st3" d="M379,51.9v19h-16.3V5.2h28.7c16.3,0,27.2,8.9,27.2,23.1c0,9.2-4.7,16.4-12.6,20.4l16.9,22.2h-19.6l-14.2-19
				C389.1,51.9,379,51.9,379,51.9z M391,37.2c6.3,0,11.2-3.5,11.2-8.9c0-5.3-4.9-8.7-11.2-8.7h-12v17.6C379,37.2,391,37.2,391,37.2z
				"/>
		</g>
		<g>
			<g>
				<path class="st3" d="M24.1,117h5c-0.9,5.9-5.4,9.8-11.3,9.8c-6.7,0-12-5-12-12s5.3-12,12-12c5.9,0,10.4,3.9,11.3,9.8h-5
					c-0.8-3.3-3-5.1-6.3-5.1c-4.1,0-7.1,2.9-7.1,7.3s3,7.3,7.1,7.3C21.1,122.1,23.3,120.2,24.1,117z"/>
				<path class="st3" d="M65.6,114.8c0,6.7-5.3,12-12,12c-6.7,0-12-5.3-12-12s5.3-12,12-12S65.6,108.1,65.6,114.8z M60.7,114.8
					c0-4.1-3-7.4-7.1-7.4s-7.1,3.3-7.1,7.4s3,7.4,7.1,7.4S60.7,118.8,60.7,114.8z"/>
				<path class="st3" d="M99.4,126.2h-3.8l-12.1-13.9v13.9h-4.9v-23h3.7l12.2,14.3v-14.3h4.9C99.4,103.2,99.4,126.2,99.4,126.2z"/>
				<path class="st3" d="M131.6,110.3h-4.8c-0.3-2-1.6-3.4-4.4-3.4c-2.4,0-4,1-4,2.8c0,1.6,1.1,2.2,3.2,2.6l2.8,0.6
					c4.4,0.9,7,2.6,7,6.5c0,4.4-3.6,7.3-9.1,7.3s-9.7-2.9-10.1-8.1h4.9c0.4,2.3,2.4,3.8,5.5,3.8c2.4,0,3.8-0.9,3.8-2.5
					c0-0.9-0.5-1.9-2.9-2.4l-3.7-0.7c-4.6-0.9-6.6-3.2-6.6-6.8c0-4.4,3.5-7.4,8.8-7.4C125.9,102.8,131.1,104.4,131.6,110.3z"/>
				<path class="st3" d="M165.2,115.8c0,6.9-4.1,10.9-10.4,10.9c-6.2,0-10.3-4.1-10.3-10.9v-12.5h4.9v12.6c0,3.8,2.2,6.3,5.5,6.3
					s5.5-2.5,5.5-6.3v-12.6h4.9L165.2,115.8L165.2,115.8z"/>
				<path class="st3" d="M195.1,126.2h-16.6v-23h4.9v18.6h11.7L195.1,126.2L195.1,126.2z"/>
				<path class="st3" d="M213.7,107.7v18.5h-4.9v-18.5h-7.7v-4.5h20.2v4.5H213.7z"/>
				<path class="st3" d="M235.1,121.8l-1.8,4.4h-5.2l9.9-23.1h4.6l9.9,23.1h-5.2l-1.8-4.4H235.1z M240.3,109l-3.4,8.4h6.8L240.3,109
					z"/>
				<path class="st3" d="M285.1,126.2h-3.8l-12.1-13.9v13.9h-4.9v-23h3.7l12.2,14.3v-14.3h4.9L285.1,126.2L285.1,126.2z"/>
				<path class="st3" d="M316.4,117h5c-0.9,5.9-5.4,9.8-11.3,9.8c-6.7,0-12-5-12-12s5.3-12,12-12c5.9,0,10.4,3.9,11.3,9.8h-5
					c-0.8-3.3-3-5.1-6.3-5.1c-4.1,0-7.1,2.9-7.1,7.3s3,7.3,7.1,7.3C313.4,122.1,315.6,120.2,316.4,117z"/>
				<path class="st3" d="M344.5,118.8v7.4h-4.9v-7.4l-9.2-15.6h5.4l6.2,10.6l6.2-10.6h5.4L344.5,118.8z"/>
			</g>
		</g>
	</g>
</g>
</svg>
