<?xml version="1.0" encoding="utf-8"?>
<!-- Generator: Adobe Illustrator 24.0.0, SVG Export Plug-In . SVG Version: 6.00 Build 0)  -->
<svg version="1.1" id="Capa_1" xmlns="http://www.w3.org/2000/svg" xmlns:xlink="http://www.w3.org/1999/xlink" x="0px" y="0px"
	 viewBox="0 0 500 500" style="enable-background:new 0 0 500 500;" xml:space="preserve">
<style type="text/css">
	.st0{fill:#007938;}
</style>
<g>
	<path d="M283.9,22.3c5.3,0,10.7,0,16,0c1.3,0.3,2.6,0.7,3.9,0.8c43.1,3.8,80.6,20.3,112,49.9c38.7,36.5,58.2,81.7,59.2,134.8
		c0.2,11.8-4.7,17-16.4,17c-29.7,0-59.4,0-89.1,0c-1.7,0-3.4,0-4.8,0c2.5,10.7,4.8,20.7,7.3,31.2c1.4,0,3,0,4.6,0
		c27.6,0,55.2,0,82.8,0c8.9,0,14.4,5.6,14.3,14.5c-0.1,4-0.3,8-0.7,12c-4.7,48.1-26.3,86.9-64,117c-7.2,5.7-14.9,4.7-20.6-2.5
		c-4.5-5.7-8.9-11.5-13.4-17.2c-8.1-10.4-16.1-20.8-24-30.9c-8,9.6-15.9,18.9-23.9,28.5c-0.1-0.1,0,0.2,0.2,0.4
		c9.6,12.4,19.3,24.8,28.9,37.3c6.3,8.2,5.3,15.8-2.9,21.8C298,476.6,237.4,487.3,172,469C68.8,439.9,5.5,331,30.4,226.3
		c22-92.5,103.8-158.1,197.9-158.6c10.2-0.1,15.6,5.3,15.6,15.6c0,14.5,0,29,0,43.6c0,1.6,0,3.1,0,4.1c10.5,2.2,20.3,4.2,30.4,6.3
		c0-1.8,0-3.6,0-5.3c0-30.4,0.2-60.7-0.1-91.1C274.1,32.5,276.2,26.2,283.9,22.3z M115.4,272.6c0,63.3,51.5,114.9,114.9,115
		c63.3,0.1,115.1-51.4,115.2-114.7c0.1-63.5-51.7-115.3-115.1-115.2C166.9,157.8,115.4,209.2,115.4,272.6z M305.2,393.3
		c-78,47.4-175.8,11.2-207-69.4c-14.7-37.9-13.6-76,4.5-112.5c23.3-47.1,62.3-73.1,114-80.1c0-12.2,0-24.1,0-36
		C152,99,82.4,144.5,59.3,222.2c-23,77.3,8.8,159.6,78.1,202.3c65.3,40.2,143.4,30,189.8-2.9C319.9,412.2,312.5,402.7,305.2,393.3z
		 M301.4,50.1c-0.1,0.9-0.2,1.5-0.2,2.1c0,31.5-0.1,63.1,0.1,94.6c0,1.7,1.7,4,3.3,4.9c17.7,11.2,32.5,25.2,44,42.7
		c1.8,2.7,3.6,3.6,6.8,3.6c29.2-0.1,58.5-0.1,87.7-0.1c1.5,0,2.9,0,4.4,0C443.6,118.2,375.4,54.3,301.4,50.1z M373.1,283
		c-2.9,12.1-5.4,23.6-8.4,35c-0.7,2.6-0.6,4.3,1.1,6.4c11.3,14.5,22.6,29,33.8,43.5c0.6,0.8,1.4,1.5,2.3,2.4
		c25.2-23.9,39.9-52.8,44.1-87.4C421.3,283,396.9,283,373.1,283z"/>
	<path class="st0" d="M217.1,207.4c0-4.1-0.1-7.8,0-11.4c0.2-7.5,6-13.3,13.2-13.4c7.2-0.1,13.2,5.8,13.5,13.2c0.1,3.8,0,7.6,0,10.6
		c7.1,2.2,13.8,3.6,19.9,6.4c4.7,2.2,9,5.7,12.8,9.4c5.3,5.1,5,13.2,0.1,18.4c-4.9,5.1-13.2,5.8-18.4,0.7c-5.4-5.3-11.6-7.1-19-6.8
		c-7.1,0.3-14.2,0-21.4,0.1c-8.8,0.1-14.2,4.8-14.1,12.4c0,7.5,5.4,12.2,14.3,12.3c9.9,0.1,19.9-0.3,29.8,0.4
		c20.1,1.2,35.8,17.8,36.2,37.6c0.5,20.8-14,37.6-34.5,40c-1.8,0.2-3.5,0.5-5.6,0.7c0,3.8,0.1,7.5,0,11.1
		c-0.2,7.8-6.1,13.7-13.5,13.7c-7.4-0.1-13.1-6-13.2-13.8c-0.1-3.5,0-7.1,0-10.7c-4.5-0.7-8.9-0.7-12.9-2.1
		c-5.3-1.8-10.5-4-15.2-6.9c-6.2-3.8-7.5-12-3.7-18c3.7-5.8,11.5-8.1,17.6-4.4c5.6,3.4,11.5,4.3,17.8,4.2c8.2-0.2,16.3,0.1,24.5-0.1
		c6.5-0.2,11.1-4.5,12-10.5c0.9-5.7-2.5-11.6-8-13.4c-2.1-0.7-4.4-0.8-6.6-0.8c-8.6-0.1-17.2,0.1-25.8-0.1c-17.2-0.4-30-8.2-36.8-24
		c-6.3-14.9-3.8-29.1,6.9-41.4c6.5-7.5,14.9-11.5,24.8-12.6C213.2,207.8,214.9,207.6,217.1,207.4z"/>
</g>
</svg>
