<?xml version="1.0" encoding="utf-8"?>
<!-- Generator: Adobe Illustrator 24.0.0, SVG Export Plug-In . SVG Version: 6.00 Build 0)  -->
<svg version="1.1" id="Capa_1" xmlns="http://www.w3.org/2000/svg" xmlns:xlink="http://www.w3.org/1999/xlink" x="0px" y="0px"
	 viewBox="0 0 500 500" style="enable-background:new 0 0 500 500;" xml:space="preserve">
<style type="text/css">
	.st0{fill:#007938;}
</style>
<g>
	<path d="M475,269.4c-0.9,2.3-1.5,4.8-2.6,7c-4.6,9.1-12,14.2-22.3,14.4c-9.5,0.2-18.9,0.1-29,0.1c0,2.6,0,4.8,0,7
		c0,10.7,0,21.4,0,32c0,4-0.8,7.5-4.7,9.4c-3.8,1.9-7.4,1.1-10.9-1.4c-20-14.1-40.2-27.9-59.8-42.5c-6.8-5-13.5-4.6-21.3-4.2
		c0,1.8,0,3.4,0,5c0,22.8,0,45.7,0,68.5c0,17.3-10.4,27.7-27.7,27.7c-31.7,0-63.5,0-95.2,0.1c-2.7,0-5.6,0.8-7.9,2
		c-26.4,14.5-52.6,29.1-78.9,43.7c-1.3,0.7-2.6,1.5-3.9,2c-6.7,2.8-12.5-1-12.5-8.3c0.1-9.8,0.6-19.6,0.8-29.4c0.1-3.1,0-6.2,0-9.7
		c-1.7-0.1-3.2-0.2-4.8-0.2c-13.6,0-27.3,0-40.9,0c-17.8-0.1-28.1-10.4-28.1-28.3c0-52.1,0.3-104.2-0.2-156.2
		c-0.2-16.3,11.6-28.7,28.6-28.4c39.3,0.6,78.6,0.2,117.9,0.2c1.8,0,3.5,0,5.9,0c0-2.1,0-3.8,0-5.5c0-29.4,0-58.7,0-88.1
		c0-17.3,10.4-27.8,27.6-27.8c80.6-0.1,161.1,0,241.7,0c15.1,0,22.1,5.5,28.2,21.9C475,143.6,475,206.5,475,269.4z M403.3,314.8
		c0-2.6,0-4,0-5.4c0-8.3,0-16.6,0-24.9c0.1-7.8,3-10.8,10.7-10.8c10.4,0,20.8,0,31.2,0c9.6,0,11.9-2.3,11.9-11.7c0-58,0-116,0-174.1
		c0-9.4-2.2-11.6-11.4-11.6c-79.7,0-159.4,0-239.1,0c-9.6,0-11.7,2.1-11.7,11.8c0,57.9,0,115.8,0,173.6c0,9.8,2.2,12,12.1,12
		c43.6,0,87.3,0,130.9-0.1c4.7,0,8.6,0.9,12.4,3.8c4.5,3.6,9.4,6.7,14.1,10.1C377,296.3,389.6,305.1,403.3,314.8z M177.5,197.7
		c-1.6-0.1-2.5-0.2-3.4-0.2c-40.5,0-81,0-121.5,0c-7.2,0-9.9,2.9-9.9,10.6c0,52.2,0,104.5,0,156.7c0,7.8,2.7,10.5,10.4,10.5
		c17.7,0,35.3,0,53,0c7.8,0,11,3.4,10.8,11.3c-0.1,5.8-0.5,11.6-0.6,17.4c-0.1,4.3,0,8.7,0,13.4c1.9-1,3.2-1.6,4.5-2.3
		c22.2-12.3,44.3-24.7,66.5-36.8c3.1-1.7,6.9-2.7,10.5-2.7c32.9-0.2,65.9-0.1,98.8-0.1c7.5,0,10.2-2.7,10.2-10.1
		c0-23.3,0-46.6,0-69.9c0-1.3-0.2-2.6-0.3-4.3c-2,0-3.7,0-5.5,0c-32.1,0-64.1,0-96.2,0c-17.1,0-27.4-10.4-27.4-27.5
		c0-20.2,0-40.4,0-60.5C177.5,201.3,177.5,199.7,177.5,197.7z"/>
	<path class="st0" d="M276.5,176c0.1,10.2-8,18.5-18.1,18.5c-9.9,0-18.1-8.3-18.2-18.1c-0.1-9.9,8.1-18.1,18-18.2
		C268.2,158,276.4,166,276.5,176z"/>
	<path class="st0" d="M312.9,176.4c0-10,7.9-18.1,17.9-18.2c9.9-0.1,18.2,8,18.4,17.9c0.1,10-8.2,18.5-18.2,18.5
		C321.1,194.5,312.9,186.3,312.9,176.4z"/>
	<path class="st0" d="M421.7,176.3c-0.1,10-8.1,18.1-18.1,18.2c-10,0-18.5-8.5-18.2-18.5c0.2-10,8.4-17.9,18.4-17.9
		C413.7,158.2,421.7,166.3,421.7,176.3z"/>
</g>
</svg>
