<?xml version="1.0" encoding="utf-8"?>
<!-- Generator: Adobe Illustrator 24.0.0, SVG Export Plug-In . SVG Version: 6.00 Build 0)  -->
<svg version="1.1" id="Capa_1" xmlns="http://www.w3.org/2000/svg" xmlns:xlink="http://www.w3.org/1999/xlink" x="0px" y="0px"
	 viewBox="0 0 500 500" style="enable-background:new 0 0 500 500;" xml:space="preserve">
<style type="text/css">
	.st0{fill:#007938;}
</style>
<g>
	<path d="M292.2,475c-8.2-3.5-11-9.8-10.7-18.6c0.5-13.3,0.1-26.6,0.1-40c0-1.4,0-2.9,0-4.7c-2.1,0-3.8,0-5.5,0
		c-60.2,0-120.4,0-180.6,0c-16.5,0-28.9-10.3-31.5-26.1c-0.4-2.1-0.4-4.4-0.4-6.6c0-107.2,0-214.4,0-321.6
		C63.7,37.9,76.6,25,96.2,25c81.4,0,162.9,0,244.3,0c19.8,0,32.6,12.9,32.6,32.8c0,49.9,0,99.9-0.1,149.8c0,3.5,1,5,4.3,6.2
		c60.8,22.5,78.9,101.1,34.1,147.9c-2.3,2.4-3.2,4.8-3.2,8.1c0.1,28.9-0.2,57.7,0.2,86.5c0.1,8.8-2.5,15-10.7,18.6c-2.3,0-4.7,0-7,0
		c-14.3-8.2-28.6-16.4-43-24.3c-1.5-0.8-4.3-0.6-5.8,0.3c-14.3,7.9-28.4,16-42.6,24.1C296.9,475,294.6,475,292.2,475z M281.7,383.6
		c0-5.3,0.2-10.2-0.1-14.9c-0.2-2.1-1.1-4.6-2.5-6.1c-48.2-50.6-24.9-133.9,42.6-151.7c7.4-2,15.2-2.6,23.3-3.9c0-1.2,0-2.8,0-4.3
		c0-47.7,0-95.5,0-143.2c0-6.3,0-6.3-6.3-6.3c-80.1,0-160.2,0-240.3,0c-6.5,0-6.5,0-6.5,6.6c0,105.7,0,211.5,0,317.2
		c0,6.6,0,6.6,6.5,6.6c59.5,0,118.9,0,178.4,0C278.1,383.6,279.6,383.6,281.7,383.6z M345,235.9c-34.8,0-63.2,28.3-63.3,63
		c-0.1,35,28.3,63.5,63.2,63.6c34.8,0,63.2-28.3,63.3-63C408.3,264.5,380,236,345,235.9z M310.1,383.8c0,17.7,0,35,0,52.7
		c8.3-4.7,16.4-8.8,24-13.8c7.6-5,14.4-4.8,22,0.1c7.6,4.9,15.6,9,23.8,13.6c0-17.8,0-35.1,0-52.7
		C356.4,392.9,333.3,392.8,310.1,383.8z"/>
	<path class="st0" d="M208.3,95.3c19.2,0,38.4,0,57.6,0c9.4,0,15.8,5.7,15.8,14c0.1,8.3-6.3,14.2-15.6,14.2c-38.8,0-77.6,0-116.4,0
		c-9.3,0-15.7-5.9-15.6-14.2c0.1-8.3,6.4-13.9,15.8-13.9C169.3,95.3,188.8,95.3,208.3,95.3z"/>
	<path class="st0" d="M207.8,151.6c19.3,0,38.7,0,58,0c9.4,0,15.8,5.7,15.8,13.9c0.1,8.3-6.3,14.2-15.6,14.2c-38.8,0-77.6,0-116.4,0
		c-9.3,0-15.7-5.9-15.6-14.2c0.1-8.3,6.4-13.9,15.8-13.9C169.2,151.6,188.5,151.6,207.8,151.6z"/>
	<path class="st0" d="M183.5,207.8c11.3,0,22.6,0,33.8,0c8.9,0,15.2,6,15.1,14.2c-0.1,8-6.3,13.9-15,13.9c-22.8,0.1-45.7,0.1-68.5,0
		c-8.6,0-14.9-6-14.9-14c0-8.2,6.3-14.1,15.2-14.1C160.7,207.8,172.1,207.8,183.5,207.8z"/>
	<path class="st0" d="M334.1,301.6c6.7-10,13.2-19.9,19.8-29.6c3.8-5.6,9.7-8.1,15.4-6.6c9.1,2.3,13.9,12.5,8.9,20.4
		c-9.4,14.9-19.3,29.6-29.4,44.1c-4,5.8-11.5,7.2-17.6,3.4c-7.8-4.8-15.6-9.9-23-15.3c-6.1-4.4-7.1-12.7-2.9-18.8
		c4.2-6.1,12.1-8,18.6-4.2C327.3,296.9,330.5,299.3,334.1,301.6z"/>
</g>
</svg>
