<?xml version="1.0" encoding="utf-8"?>
<!-- Generator: Adobe Illustrator 24.0.0, SVG Export Plug-In . SVG Version: 6.00 Build 0)  -->
<svg version="1.1" id="Capa_1" xmlns="http://www.w3.org/2000/svg" xmlns:xlink="http://www.w3.org/1999/xlink" x="0px" y="0px"
	 viewBox="0 0 500 200" style="enable-background:new 0 0 500 200;" xml:space="preserve">
<style type="text/css">
	.st0{fill:url(#SVGID_1_);}
	.st1{fill:url(#SVGID_2_);}
	.st2{fill:url(#SVGID_3_);}
	.st3{fill:#007938;}
	.st4{fill:#323E48;}
</style>
<g>
	<linearGradient id="SVGID_1_" gradientUnits="userSpaceOnUse" x1="379.9576" y1="138.6228" x2="455.1543" y2="138.6228">
		<stop  offset="0" style="stop-color:#86C6A0"/>
		<stop  offset="1" style="stop-color:#007938"/>
	</linearGradient>
	<path class="st0" d="M444.4,121.1c3.3,5,5.2,11.1,5.2,17.6c0,17.7-14.4,32.1-32.1,32.1s-32.1-14.4-32.1-32.1s14.4-32.1,32.1-32.1
		c3.7,0,7.2,0.6,10.5,1.8c0.8-1.7,1.6-3.4,2.4-5c-4-1.5-8.4-2.3-13-2.3c-20.7,0-37.6,16.9-37.6,37.6s16.9,37.6,37.6,37.6
		s37.6-16.9,37.6-37.6c0-8.8-3-16.9-8.1-23.3C446.2,117.2,445.3,119.1,444.4,121.1z"/>
	<linearGradient id="SVGID_2_" gradientUnits="userSpaceOnUse" x1="447.7488" y1="70.5407" x2="447.7488" y2="163.8363">
		<stop  offset="0" style="stop-color:#86C6A0"/>
		<stop  offset="1" style="stop-color:#007938"/>
	</linearGradient>
	<path class="st1" d="M415.7,146.7c0,0,24.9-52.2,27.5-56.4c2.8-4.7,10.9-19.8,24.7-19.8c5.6,0,11.2,1.9,11.9,2.3
		c-6.9,3.3-12.9,12.8-17.5,21.9s-27.1,56.7-27.1,56.7s-2.9,5.3-4.4,7s-6.2,5.3-6.2,5.3l-7.1-5.2L415.7,146.7z"/>
	<linearGradient id="SVGID_3_" gradientUnits="userSpaceOnUse" x1="408.5368" y1="165.7142" x2="408.5368" y2="126.7461">
		<stop  offset="0" style="stop-color:#86C6A0"/>
		<stop  offset="1" style="stop-color:#007938"/>
	</linearGradient>
	<path class="st2" d="M416.4,165.7c-6.7,0-12.3-3.6-17.5-15c-4.7-10.3-8.6-19-12.6-21.2c5.3-3,11.3-2.8,11.3-2.8s11-0.6,15.9,12
		c11.1,28.7,16.7,20.4,17.3,19.8C427.9,161.7,424.3,165.7,416.4,165.7z"/>
</g>
<g>
	<g>
		<path class="st3" d="M36.5,77.6v13.3H20.2V25.2h16.3v29.8l26.2-29.8H82L57,54l27.1,36.9H64.2L45.9,66.7L36.5,77.6z"/>
		<path class="st3" d="M155.4,58.1c0,19.1-15,34.2-34.8,34.2c-19.8,0-34.8-15.1-34.8-34.2s15-34.2,34.8-34.2
			C140.4,23.9,155.4,38.9,155.4,58.1z M138.9,58.1c0-10.3-7.6-19-18.2-19c-10.6,0-18.2,8.7-18.2,19s7.6,19,18.2,19
			C131.2,77.1,138.9,68.4,138.9,58.1z"/>
		<path class="st3" d="M223.2,45.6h-16.4c-0.9-4.9-4-8.3-10.6-8.3c-5.6,0-9.4,2.3-9.4,6.6c0,3.6,2.6,5.1,7.5,6.2l9.2,2.1
			c12,2.6,19.8,7.4,19.8,18.7c0,13.1-10.8,21.3-27.2,21.3c-14.8,0-28.1-7-29.6-23.2h16.3c1.1,5.8,6.1,9.3,13.8,9.3
			c6.1,0,9.3-2.2,9.3-5.8c0-2.2-1.4-4.5-7-5.6l-10.8-2.4c-12.9-2.8-19-8.9-19-19.3c0-13.1,10.6-21.4,26.1-21.4
			C205.8,23.8,221.6,27.9,223.2,45.6z"/>
		<path class="st3" d="M297.4,90.9h-16.2V66.3h-26.7v24.6h-16.3V25.2h16.3v26.4h26.7V25.2h16.2V90.9z"/>
		<path class="st3" d="M330.2,51.4h29.2v13.9h-29.2v11.4h33.3v14.2h-49.6V25.2h49.6v14.2h-33.3V51.4z"/>
		<path class="st3" d="M394,71.9v19h-16.3V25.2h28.7c16.3,0,27.2,8.9,27.2,23.1c0,9.2-4.7,16.4-12.6,20.4l16.9,22.2h-19.6l-14.2-19
			H394z M406,57.2c6.3,0,11.2-3.5,11.2-8.9c0-5.3-4.9-8.7-11.2-8.7H394v17.6H406z"/>
	</g>
	<g>
		<path class="st4" d="M39.1,137h5c-0.9,5.9-5.4,9.8-11.3,9.8c-6.7,0-12-5-12-12s5.3-12,12-12c5.9,0,10.4,3.9,11.3,9.8h-5
			c-0.8-3.3-3-5.1-6.3-5.1c-4.1,0-7.1,2.9-7.1,7.3c0,4.4,3,7.3,7.1,7.3C36.1,142.1,38.3,140.2,39.1,137z"/>
		<path class="st4" d="M80.6,134.8c0,6.7-5.3,12-12,12c-6.7,0-12-5.3-12-12c0-6.7,5.3-12,12-12C75.3,122.8,80.6,128.1,80.6,134.8z
			 M75.7,134.8c0-4.1-3-7.4-7.1-7.4c-4.1,0-7.1,3.3-7.1,7.4c0,4.1,3,7.4,7.1,7.4C72.7,142.2,75.7,138.8,75.7,134.8z"/>
		<path class="st4" d="M114.4,146.2h-3.8l-12.1-13.9v13.9h-4.9v-23h3.7l12.2,14.3v-14.3h4.9V146.2z"/>
		<path class="st4" d="M146.6,130.3h-4.8c-0.3-2-1.6-3.4-4.4-3.4c-2.4,0-4,1-4,2.8c0,1.6,1.1,2.2,3.2,2.6l2.8,0.6
			c4.4,0.9,7,2.6,7,6.5c0,4.4-3.6,7.3-9.1,7.3c-5.5,0-9.7-2.9-10.1-8.1h4.9c0.4,2.3,2.4,3.8,5.5,3.8c2.4,0,3.8-0.9,3.8-2.5
			c0-0.9-0.5-1.9-2.9-2.4l-3.7-0.7c-4.6-0.9-6.6-3.2-6.6-6.8c0-4.4,3.5-7.4,8.8-7.4C140.9,122.8,146.1,124.4,146.6,130.3z"/>
		<path class="st4" d="M180.2,135.8c0,6.9-4.1,10.9-10.4,10.9c-6.2,0-10.3-4.1-10.3-10.9v-12.5h4.9v12.6c0,3.8,2.2,6.3,5.5,6.3
			c3.3,0,5.5-2.5,5.5-6.3v-12.6h4.9V135.8z"/>
		<path class="st4" d="M210.1,146.2h-16.6v-23h4.9v18.6h11.7V146.2z"/>
		<path class="st4" d="M228.7,127.7v18.5h-4.9v-18.5h-7.7v-4.5h20.2v4.5H228.7z"/>
		<path class="st4" d="M250.1,141.8l-1.8,4.4h-5.2l9.9-23.1h4.6l9.9,23.1h-5.2l-1.8-4.4H250.1z M255.3,129l-3.4,8.4h6.8L255.3,129z"
			/>
		<path class="st4" d="M300.1,146.2h-3.8l-12.1-13.9v13.9h-4.9v-23h3.7l12.2,14.3v-14.3h4.9V146.2z"/>
		<path class="st4" d="M331.4,137h5c-0.9,5.9-5.4,9.8-11.3,9.8c-6.7,0-12-5-12-12s5.3-12,12-12c5.9,0,10.4,3.9,11.3,9.8h-5
			c-0.8-3.3-3-5.1-6.3-5.1c-4.1,0-7.1,2.9-7.1,7.3c0,4.4,3,7.3,7.1,7.3C328.4,142.1,330.6,140.2,331.4,137z"/>
		<path class="st4" d="M359.5,138.8v7.4h-4.9v-7.4l-9.2-15.6h5.4l6.2,10.6l6.2-10.6h5.4L359.5,138.8z"/>
	</g>
</g>
</svg>
