<?xml version="1.0" encoding="utf-8"?>
<!-- Generator: Adobe Illustrator 24.0.0, SVG Export Plug-In . SVG Version: 6.00 Build 0)  -->
<svg version="1.1" id="Capa_1" xmlns="http://www.w3.org/2000/svg" xmlns:xlink="http://www.w3.org/1999/xlink" x="0px" y="0px"
	 viewBox="0 0 500 500" style="enable-background:new 0 0 500 500;" xml:space="preserve">
<style type="text/css">
	.st0{fill:#007938;}
</style>
<g>
	<path d="M250.5,32.5c66.2,0,132.5,0,198.7,0c17,0,25.8,8.8,25.8,25.6c0,128,0,255.9,0,383.9c0,16.6-8.8,25.6-25.4,25.6
		c-133.1,0-266.2,0-399.3,0c-16.3,0-25.3-8.9-25.3-25.1c0-128.3,0-256.6,0-384.8c0-16.1,9-25.1,25.4-25.1
		C117.1,32.5,183.8,32.5,250.5,32.5z M460,107.8c-140.3,0-280,0-420,0c0,2,0,3.7,0,5.4c0,109.2,0,218.4,0,327.6
		c0,9.8,1.8,11.7,11.8,11.7c132.2,0,264.3,0,396.5,0c9.9,0,11.8-1.8,11.8-11.7c0-109,0-218.1,0-327.1C460,111.8,460,110,460,107.8z
		 M40,92.2c140.3,0,280,0,420,0c0-11.2,0-22.1,0-33c0-9.9-1.8-11.7-11.7-11.7c-132.1,0-264.3,0-396.4,0c-1.4,0-2.8-0.1-4.2,0
		c-4.7,0.3-7.5,3-7.6,7.8C39.9,67.5,40,79.6,40,92.2z"/>
	<path d="M250,362.5c-29.1,0-58.1,0-87.2,0c-8,0-10.3-2.3-10.3-10.3c0-18.3,0-36.6,0-54.8c0-7.4,2.5-9.8,9.8-9.8
		c58.4,0,116.9,0,175.3,0c7.3,0,9.8,2.5,9.8,9.8c0,18.4,0,36.9,0,55.3c0,7.3-2.5,9.8-9.9,9.8C308.4,362.5,279.2,362.5,250,362.5z
		 M167.7,347.2c55.1,0,109.8,0,164.4,0c0-15.1,0-29.8,0-44.5c-55,0-109.6,0-164.4,0C167.7,317.6,167.7,332.2,167.7,347.2z"/>
	<path d="M250.4,212.5c-29.2,0-58.4,0-87.7,0c-7.9,0-10.2-2.4-10.2-10.4c0-8.6-0.1-17.2,0-25.8c0-6.1,2.8-8.8,9-8.8
		c59.1,0,118.1,0,177.2,0c6.1,0,8.8,2.8,8.8,8.9c0.1,8.9,0.1,17.8,0,26.7c0,6.7-2.7,9.3-9.4,9.3
		C308.8,212.5,279.6,212.5,250.4,212.5z M332.3,182.8c-54.9,0-109.7,0-164.4,0c0,5,0,9.7,0,14.4c55,0,109.7,0,164.4,0
		C332.3,192.2,332.3,187.6,332.3,182.8z"/>
	<path d="M249.7,272.5c-28.9,0-57.8,0-86.7,0c-8.3,0-10.5-2.3-10.5-10.6c0-8.4,0-16.9,0-25.3c0-6.4,2.7-9.1,9.2-9.1
		c58.9,0,117.8,0,176.7,0c6.4,0,9.1,2.7,9.1,9.2c0,8.9,0.1,17.8,0,26.7c0,6.4-2.7,9.1-9.2,9.1C308.8,272.5,279.2,272.5,249.7,272.5z
		 M332.3,242.8c-55.1,0-109.8,0-164.4,0c0,5.1,0,9.8,0,14.4c55,0,109.6,0,164.4,0C332.3,252.4,332.3,247.8,332.3,242.8z"/>
	<path class="st0" d="M250.3,422.5c-5.2,0-10.3,0.1-15.5,0c-12.5-0.3-22.3-10.1-22.4-22.4c0-12.3,9.7-22.3,22.2-22.5
		c10.1-0.2,20.3-0.2,30.4,0c12.5,0.2,22.3,10.1,22.3,22.4c0,12.3-9.7,22.3-22.2,22.6C260.3,422.6,255.3,422.5,250.3,422.5z
		 M249.9,407.5c4.5,0,9.1,0,13.6,0c0.2,0,0.3,0,0.5,0c5.2-0.2,8.4-3,8.5-7.4c0.1-4.4-3.2-7.5-8.3-7.6c-9.4-0.1-18.7-0.1-28.1,0
		c-5.2,0-8.4,3-8.5,7.4c-0.1,4.4,3.2,7.5,8.3,7.6C240.5,407.6,245.2,407.5,249.9,407.5z"/>
	<path class="st0" d="M250.5,137.5c11.7,0,23.4,0,35.2,0c5.9,0,9.3,2.8,9.3,7.5c0,4.7-3.4,7.5-9.3,7.5c-23.7,0-47.5,0-71.2,0
		c-5.9,0-9.3-2.8-9.3-7.5c0-4.7,3.4-7.5,9.3-7.5C226.4,137.5,238.4,137.5,250.5,137.5z"/>
	<path class="st0" d="M62.5,62.5c4.1,0,7.5,3.4,7.4,7.5c0,4.1-3.4,7.5-7.5,7.5C58.4,77.4,55,74,55,70C55,65.9,58.4,62.5,62.5,62.5z"
		/>
	<path class="st0" d="M85,69.6c0.2-4.1,3.8-7.3,7.8-7.1c4.1,0.2,7.3,3.8,7.1,7.8c-0.2,4-3.8,7.3-7.8,7.1
		C88.1,77.2,84.8,73.7,85,69.6z"/>
	<path class="st0" d="M130,69.8c0.1,4-3.3,7.5-7.3,7.6c-4.1,0.1-7.5-3.2-7.6-7.3c-0.1-4.1,3.2-7.5,7.3-7.6
		C126.4,62.4,129.9,65.7,130,69.8z"/>
</g>
</svg>
