<?xml version="1.0" encoding="utf-8"?>
<!-- Generator: Adobe Illustrator 24.0.0, SVG Export Plug-In . SVG Version: 6.00 Build 0)  -->
<svg version="1.1" id="Capa_1" xmlns="http://www.w3.org/2000/svg" xmlns:xlink="http://www.w3.org/1999/xlink" x="0px" y="0px"
	 viewBox="0 0 500 500" style="enable-background:new 0 0 500 500;" xml:space="preserve">
<style type="text/css">
	.st0{fill:#007938;}
</style>
<g>
	<path d="M475,364.3c-2.3,9-3.9,18.3-7.1,27c-14.5,39.4-58.1,65.7-99.6,60.2c-40.7-5.4-67.9-27.8-81.8-66.3
		c-1.2-3.2-2.9-3.3-5.5-3.3c-75.7,0-151.4,0-227.2,0.1c-11.5,0-20.7-4.2-25.8-14.8c-1.9-3.8-2.9-8.4-2.9-12.7
		c-0.2-93-0.2-186-0.1-279c0-16.4,11.3-27.5,27.8-27.5c34.1-0.1,68.2-0.1,102.4,0c16.9,0,27.9,11.2,28,28.2c0,2.2,0,4.3,0,7
		c2.1,0,3.8,0,5.5,0c64.3,0,128.6,0,192.9,0c19.6,0,30.1,10.5,30.1,30.1c0,48.8,0,97.5,0,146.3c0,1.7,0,3.5,0,5.4
		c13.3,5.1,25,12.4,34.9,22.5c15.5,15.7,24.8,34.5,27.5,56.5c0.1,1,0.5,1.9,0.8,2.9C475,352.5,475,358.4,475,364.3z M394.1,259.8
		c0-1.9,0-3.4,0-5c0-47.3,0-94.6,0-141.9c0-9.5-2.8-12.3-12.3-12.3c-111.5,0-222.9,0-334.4,0c-1.5,0-3.1,0-4.9,0c0,2,0,3.5,0,4.9
		c0,82.2,0,164.3,0,246.5c0,9.5,2.8,12.2,12.4,12.2c74,0,147.9,0,221.9,0c1.6,0,3.1,0,5,0c-1.6-31.4,8-58.2,30.8-79.5
		C335.5,263.5,363,256.1,394.1,259.8z M457.4,355.7c0.2-43-35.1-79-78-79.3c-44.3-0.3-79.9,34.9-80.2,79.3
		c-0.3,42.9,35.6,78.8,78.9,78.9C421.6,434.7,457.2,399.3,457.4,355.7z M165.6,82.9c0-1.5,0-2.7,0-3.8c0.1-11.2-2.3-13.6-13.6-13.6
		c-28.4,0-56.8,0-85.1,0c-5,0-10-0.1-14.9,0.1c-5.6,0.2-9,3.5-9.3,9.1c-0.2,2.7,0,5.4,0,8.3C83.8,82.9,124.4,82.9,165.6,82.9z"/>
	<path class="st0" d="M82.4,135.7c-4.1,0-8.2,0.1-12.3,0c-6-0.1-10-3.8-9.9-8.9c0.1-4.9,4-8.6,9.7-8.6c8.5-0.1,16.9-0.1,25.4,0
		c5.7,0.1,9.6,3.7,9.7,8.6c0.1,5.1-3.9,8.7-9.9,8.9C90.8,135.8,86.6,135.7,82.4,135.7z"/>
	<path class="st0" d="M130.4,127.1c-0.1,4.6-4.2,8.6-8.8,8.6c-4.9,0-8.9-4.1-8.7-9c0.2-4.7,4.2-8.5,8.9-8.4
		C126.5,118.4,130.5,122.5,130.4,127.1z"/>
	<path class="st0" d="M378.2,403.8c-8.5,0-17,0.1-25.5,0c-11.1-0.1-18.3-7.3-18.4-18.5c-0.1-6.7-0.1-13.5,0-20.2
		c0.1-6.7,2.6-12.1,8.5-15.9c1.2-0.8,2.1-3,2.1-4.6c0.2-7.4-0.2-14.9,3.4-21.8c3.8-7.2,9.5-12.6,17.5-14.2c12.1-2.5,24.2-3.3,34.8,5
		c7.5,5.8,10.6,13.8,10.9,23c0.1,1.9,0.2,3.8,0,5.7c-0.3,3.7,0.4,6.3,4.1,8.6c4.9,3,6.6,8.4,6.6,14.1c0.1,7.2,0.1,14.3,0,21.5
		c-0.2,10.1-7.5,17.1-17.7,17.4c-0.3,0-0.6,0-0.9,0C395.2,403.8,386.7,403.8,378.2,403.8z M404.5,364.6c-17.7,0-35,0-52.2,0
		c0,7.4,0,14.5,0,21.4c17.6,0,34.8,0,52.2,0C404.5,378.8,404.5,371.8,404.5,364.6z M394,346.5c-0.5-7.4,2.3-15.2-5.6-20.1
		c-4.4-2.8-16.9-2.5-21,0.6c-6.9,5.2-4.2,12.5-4.7,19.5C373.2,346.5,383.3,346.5,394,346.5z"/>
</g>
</svg>
