<?xml version="1.0" encoding="utf-8"?>
<!-- Generator: Adobe Illustrator 24.0.0, SVG Export Plug-In . SVG Version: 6.00 Build 0)  -->
<svg version="1.1" id="Capa_1" xmlns="http://www.w3.org/2000/svg" xmlns:xlink="http://www.w3.org/1999/xlink" x="0px" y="0px"
	 viewBox="0 0 500 500" style="enable-background:new 0 0 500 500;" xml:space="preserve">
<style type="text/css">
	.st0{fill:#007938;}
</style>
<g>
	<path d="M475,308.8c-2.6,5.2-6.8,6.9-12.5,6.9c-16.4-0.2-32.8-0.1-49.2-0.1c-9.3,0-11.2-1.5-14-10.5c-0.4-1.4-0.9-2.7-1.7-4.8
		c-4.7,3.2-9.2,6.1-13.5,9.2c-0.7,0.5-0.8,2.1-0.7,3.1c0.8,17.8-10.6,31.4-28.4,33.5c-2.8,0.3-4.2,1.4-5.7,3.7
		c-7.7,12.4-19.4,17.4-33.5,16.7c-3-0.2-4.3,0.5-5.8,3c-8.1,13.1-24,19.8-37,15.5c-0.8-0.3-2.1-0.3-2.8,0.1c-12.8,8.1-26,6-39.3,1.4
		c-10-3.4-18.5-9.5-26.7-15.8c-23.1-18-46.4-35.7-69-54.4c-11.4-9.4-21.2-20.5-31.8-30.9c-0.5-0.5-1-1-1.6-1.5
		c-0.3,0.4-0.5,0.6-0.6,0.8c-4.8,11.9-4.8,11.9-17.8,11.9c-15.5,0-31,0-46.6,0c-8.8,0-12-3.1-12-11.8c0-54.6,0-109.3,0-163.9
		c0-8.6,3.7-12.2,12.1-11.6c26.9,2.1,53.7,4.2,79.6,12.3c4.8,1.5,9.5,3.8,14,6.1c5.4,2.8,7.7,7.4,6.3,13.6c-0.3,1.5-0.4,3.2-0.6,5.3
		c1.8,0.1,3.4,0.2,4.9,0.2c22,0,43.9,0.1,65.9-0.1c2.4,0,5.2-1,7.1-2.4c14-10.2,29.2-16.7,47-14.9c11.1,1.2,21.3,5,31.4,9.3
		c15.6,6.6,31.3,13,47,19.4c1.3,0.5,2.7,1,3.7,1.3c0.8-3,0.9-6.4,2.5-8.6c1.7-2.2,4.7-3.8,7.5-4.9c25-9.8,51.2-14.3,77.8-16.5
		c10.4-0.9,20.8-0.9,31.1-1.6c5.7-0.4,9.9,1.6,12.5,6.8C475,192.8,475,250.8,475,308.8z M253.1,372c0.3-0.6,0.6-1.3,0.9-1.9
		c-9-8.8-18.1-17.5-27.1-26.3c-4.2-4.1-8.2-8.4-12-12.8c-3.5-4.1-3-9.6,0.7-13c3.6-3.3,8.9-3.2,12.7,0.3c1.3,1.2,2.4,2.5,3.7,3.8
		c14.2,14.1,28.4,28.3,42.7,42.4c3.8,3.7,8.3,4,12.4,1.3c3.4-2.2,6.1-5.4,9-8.1c-14.4-14.8-27.9-28.8-41.5-42.8
		c-1.1-1.2-2.3-2.3-3.1-3.7c-2.6-4-2-8.9,1.5-12c3.4-3.1,8.4-3.3,12.1-0.4c1.5,1.2,2.7,2.7,4,4c13.6,13.7,27.1,27.5,41,41
		c5.9,5.7,14.7,5.1,20.9-0.7c3.4-3.2,3.4-4.4,0.1-7.7c-16.6-16.7-33.2-33.5-49.7-50.3c-4.4-4.5-4.4-10.2-0.3-14
		c4-3.7,9.3-3.4,13.7,1c4.6,4.6,8.9,9.3,13.5,13.8c12.8,12.9,25.6,25.7,38.6,38.4c3.8,3.8,7.3,3.9,11.9,1.1
		c5.6-3.4,7.5-9.2,4.6-15.1c-1.5-3.1-3.5-6.2-5.8-8.7c-5.7-6.2-11.4-12.7-17.8-18.2c-26.8-22.9-53.9-45.5-81-68.1
		c-0.9-0.8-2.9-0.8-4.2-0.4c-4.3,1.4-8.3,3.8-12.7,4.8c-4,0.9-6.6,2.9-9.3,5.9c-13.2,14.7-29.3,20.4-48.6,15.1
		c-14.7-4-21.7-15.4-18.8-30.5c3.1-15.7,11.6-28.6,21.7-40.5c1.1-1.2,2.1-2.5,3.5-4.1c-19.5,0-38.2,0-57,0c-1.2,5.5-2.1,10.8-3.5,16
		c-6.8,25.9-13.8,51.7-20.6,77.6c-0.4,1.7-0.5,4.4,0.5,5.4c11.1,11.5,21.5,23.8,33.8,33.9c26.3,21.7,53.4,42.4,80.6,63
		c5.5,4.2,12.7,6.4,19.3,9C246.4,371.8,249.9,371.6,253.1,372z M374.8,293.1c5.2-3.5,10.2-6.7,15-10.2c0.8-0.6,1.3-2.8,0.9-3.9
		c-11.1-30.7-22.2-61.3-33.5-91.9c-0.5-1.3-1.8-2.7-3.1-3.3c-25.9-10.5-51.8-20.9-77.6-31.3c-18.3-7.4-35.4-5.6-50.6,7
		c-8.8,7.3-17.3,14.9-25.1,23.2c-8.2,8.7-14.5,18.8-17.1,30.7c-1.3,5.9,0,8.1,5.9,9.5c3.5,0.8,7.2,1.3,10.8,1
		c9.7-0.9,15.9-7.2,21.6-14.4c1.8-2.3,4.2-4.8,6.8-5.8c8.5-3.3,17.4-5.8,26-8.9c4.5-1.6,8.1-0.9,11.7,2.2
		c15.4,13.3,30.9,26.5,46.5,39.5C334.4,254.2,356.6,271.1,374.8,293.1z M456,296.7c0-50.3,0-99.9,0-149.8
		c-30.6,0.8-60.3,4.7-89,14.1c5.9,15,12.1,29.4,17.4,44.1c10.5,29.2,20.5,58.5,30.8,87.7c0.5,1.5,2.1,3.7,3.2,3.7
		C430.9,296.8,443.3,296.7,456,296.7z M83.8,278c1.7-5.6,3.4-10.9,5-16.2c11.3-38.1,22.7-76.2,28.9-115.6c0.6-3.7-0.5-5.2-3.7-5.8
		c-12.9-2.7-25.7-5.8-38.6-8c-10.3-1.8-20.8-2.5-31.4-3.7c0,50.2,0,99.7,0,149.4C57.3,278,70.4,278,83.8,278z"/>
	<path class="st0" d="M456,296.7c0-50.3,0-99.9,0-149.8c-30.6,0.8-60.3,4.7-89,14.1c5.9,15,12.1,29.4,17.4,44.1
		c10.5,29.2,20.5,58.5,30.8,87.7c0.5,1.5,2.1,3.7,3.2,3.7C430.9,296.8,443.3,296.7,456,296.7z"/>
	<path class="st0" d="M83.8,278c1.7-5.6,3.4-10.9,5-16.2c11.3-38.1,22.7-76.2,28.9-115.6c0.6-3.7-0.5-5.2-3.7-5.8
		c-12.9-2.7-25.7-5.8-38.6-8c-10.3-1.8-20.8-2.5-31.4-3.7c0,50.2,0,99.7,0,149.4C57.3,278,70.4,278,83.8,278z"/>
</g>
</svg>
